<?xml version="1.0" standalone="no"?>
<!DOCTYPE svg PUBLIC "-//W3C//DTD SVG 20010904//EN"
 "http://www.w3.org/TR/2001/REC-SVG-20010904/DTD/svg10.dtd">
<svg version="1.0" xmlns="http://www.w3.org/2000/svg"
 width="256.000000pt" height="256.000000pt" viewBox="0 0 256.000000 256.000000"
 preserveAspectRatio="xMidYMid meet">
<metadata>
Created by potrace 1.14, written by Peter Selinger 2001-2017
</metadata>
<g transform="translate(0.000000,256.000000) scale(0.100000,-0.100000)"
fill="#000000" stroke="none">
<path d="M1420 2542 c-30 -10 -82 -37 -115 -60 -33 -23 -67 -47 -75 -52 -8 -5
-69 -47 -135 -93 -66 -45 -172 -118 -235 -162 -173 -118 -268 -184 -335 -231
-33 -23 -74 -61 -92 -86 -58 -79 -63 -123 -63 -503 l0 -340 358 -133 c196 -73
364 -136 372 -139 8 -4 35 -14 60 -23 l45 -16 -1 -50 c0 -49 0 -49 -40 -57
-143 -31 -286 -96 -335 -153 -97 -111 -67 -241 76 -332 59 -37 185 -80 283
-96 110 -18 341 -14 438 7 289 64 429 215 346 372 -21 41 -73 95 -90 95 -6 0
-12 4 -14 8 -9 24 -182 85 -293 104 -19 3 -20 12 -21 114 l-1 111 71 49 c38
27 111 77 161 111 49 34 95 66 101 71 5 5 20 14 31 21 12 6 27 17 35 23 7 7
64 47 126 88 l112 75 -1 353 c0 274 -4 362 -14 393 -8 22 -15 43 -16 47 -24
108 -136 265 -254 358 -152 120 -350 171 -485 126z m257 -128 c86 -34 140 -71
217 -149 50 -50 139 -178 138 -199 0 -3 8 -28 18 -55 16 -45 18 -88 19 -368
l2 -318 -233 -160 c-128 -88 -290 -199 -360 -248 -71 -48 -129 -84 -129 -80
-1 5 -2 127 -4 273 -1 146 -5 281 -9 300 -8 40 -26 100 -35 115 -3 6 -6 15 -7
22 -1 7 -11 25 -22 40 -11 15 -20 31 -21 36 -3 36 -186 220 -263 265 -31 18
-84 42 -119 54 -35 11 -72 23 -81 26 -21 9 601 438 669 463 60 22 138 16 220
-17z m-840 -544 c195 -68 365 -257 413 -458 17 -72 18 -568 1 -585 -12 -12
-61 2 -206 58 -33 13 -171 65 -308 116 l-248 93 1 303 c1 312 4 338 44 399 20
32 93 84 131 95 34 9 113 0 172 -21z m613 -1318 c0 -186 -1 -200 -20 -220 -25
-26 -81 -30 -105 -6 -13 13 -15 40 -13 177 l3 161 60 43 c33 23 63 42 68 43 4
0 7 -89 7 -198z m-244 -87 c1 -8 -3 -15 -9 -15 -8 0 -8 -3 -2 -8 6 -4 11 -33
11 -64 3 -96 53 -156 137 -165 71 -8 112 4 156 45 45 42 58 86 54 180 -2 46 1
52 15 48 9 -2 42 -10 72 -16 93 -21 226 -94 231 -128 9 -52 6 -62 -26 -95 -81
-83 -257 -131 -475 -130 -292 1 -535 122 -464 231 23 35 38 47 104 79 55 27
181 64 189 57 3 -3 6 -11 7 -19z"/>
<path d="M595 1431 c4 -7 7 -43 7 -80 l0 -67 221 -83 c122 -46 243 -92 268
-102 l47 -18 -1 79 0 78 -206 77 c-113 42 -215 80 -226 85 -11 4 -33 13 -50
18 -16 6 -39 13 -49 18 -14 5 -17 4 -11 -5z"/>
</g>
</svg>
